<svg width="145" height="36.25" viewBox="0 0 180 45" fill="none" xmlns="http://www.w3.org/2000/svg">
    <g clip-path="url(#clip0_21832_21063)">
        <path d="M62.5882 24.3181V28.6548H67.7893V30.6776H62.5882V36.8917H59.9875V22.2953H68.6562V24.3181H62.5882Z" fill="white"/>
        <path d="M72.8951 34.3061C72.8951 34.6115 72.95 34.831 73.0603 34.9628C73.1703 35.0952 73.3629 35.1608 73.6384 35.1608C73.707 35.1608 73.8514 35.1473 74.0718 35.1189L74.3403 36.8916C73.8307 37.072 73.3426 37.1626 72.8747 37.1626C72.0903 37.1626 71.4713 36.9505 71.0173 36.5268C70.5633 36.1026 70.3359 35.4877 70.3359 34.6811V21.461H72.8952L72.8951 34.3061Z" fill="white"/>
        <path d="M83.1902 26.174C83.9746 26.6186 84.5658 27.2373 84.965 28.0298C85.3642 28.8217 85.5635 29.7324 85.5635 30.7613V31.8869C85.5635 33.486 85.1094 34.7649 84.2013 35.7236C83.2932 36.6829 82.0136 37.1626 80.3625 37.1626C78.7248 37.1626 77.4592 36.683 76.5648 35.7236C75.6703 34.7649 75.223 33.486 75.223 31.8869V30.7613C75.223 29.7324 75.4193 28.8217 75.8115 28.0298C76.2037 27.2373 76.7846 26.6186 77.5555 26.174C78.326 25.7288 79.2615 25.5065 80.3625 25.5065C81.4635 25.5065 82.4058 25.7288 83.1902 26.174ZM78.4429 28.29C78.0023 28.8392 77.7825 29.6492 77.7825 30.7194V31.8869C77.7825 32.9853 77.9992 33.8157 78.4328 34.3791C78.8662 34.9419 79.5092 35.2235 80.3625 35.2235C81.2157 35.2235 81.8691 34.9419 82.3232 34.3791C82.7772 33.8157 83.0043 32.9853 83.0043 31.8869V30.7194C83.0043 29.6634 82.7772 28.8568 82.3232 28.3007C81.8691 27.7447 81.2154 27.4664 80.3625 27.4664C79.5229 27.4664 78.8832 27.7413 78.4429 28.29Z" fill="white"/>
        <path d="M101.518 25.7983L99.0823 36.8916H95.9243L94.0049 28.0502L92.0442 36.8916H88.9481L86.4714 25.7983H89.0307L90.6613 34.723L92.622 25.7983H95.4702L97.4516 34.723L98.9997 25.7983H101.518Z" fill="white"/>
        <path d="M110.929 36.485C110.076 36.0336 109.426 35.3938 108.979 34.5663C108.532 33.7399 108.308 32.7767 108.308 31.6787V27.842C108.308 26.6604 108.542 25.6315 109.01 24.7559C109.477 23.8803 110.145 23.206 111.012 22.7331C111.879 22.2608 112.911 22.0244 114.108 22.0244C115.057 22.0244 115.876 22.1596 116.564 22.4311C117.252 22.702 117.912 23.0946 118.545 23.6087L117.224 25.1105C116.757 24.7632 116.285 24.4985 115.81 24.318C115.336 24.1376 114.796 24.0471 114.19 24.0471C113.144 24.0471 112.336 24.3633 111.765 24.9957C111.194 25.6281 110.909 26.528 110.909 27.696V31.6368C110.909 32.7907 111.173 33.6629 111.703 34.2535C112.233 34.8446 113.02 35.1399 114.066 35.1399C114.713 35.1399 115.298 35.046 115.821 34.8587C116.344 34.6709 116.846 34.4102 117.328 34.0764L118.422 35.6404C117.871 36.0714 117.217 36.4329 116.461 36.7248C115.704 37.0166 114.885 37.1626 114.005 37.1626C112.807 37.1626 111.782 36.9363 110.929 36.485Z" fill="white"/>
        <path d="M127.736 26.5388C128.451 27.2266 128.809 28.1825 128.809 29.406V36.8917H126.807L126.601 35.8283C125.706 36.718 124.619 37.1626 123.34 37.1626C122.679 37.1626 122.07 37.0336 121.513 36.7769C120.956 36.52 120.512 36.1513 120.182 35.6716C119.851 35.192 119.686 34.6393 119.686 34.0143V33.2841C119.686 32.3112 120.092 31.5329 120.904 30.9492C121.716 30.3648 122.831 30.073 124.248 30.073H126.27V29.3224C126.27 28.6691 126.109 28.1934 125.785 27.8941C125.462 27.5955 124.97 27.4456 124.31 27.4456C123.732 27.4456 123.192 27.5157 122.689 27.6543C122.187 27.7935 121.661 28.0022 121.111 28.28L120.326 26.6741C121.592 25.8957 122.996 25.5066 124.537 25.5066C125.954 25.5066 127.02 25.8504 127.736 26.5388ZM125.166 34.973C125.586 34.7926 125.954 34.5216 126.271 34.1602V31.6997H124.495C122.982 31.6997 122.225 32.2625 122.225 33.3887V33.8055C122.225 34.2507 122.359 34.6014 122.628 34.8588C122.896 35.1162 123.298 35.244 123.835 35.244C124.303 35.244 124.747 35.154 125.166 34.973Z" fill="white"/>
        <path d="M138.904 26.153C139.53 26.584 140.019 27.1989 140.37 27.9981C140.72 28.7979 140.896 29.7187 140.896 30.7612V31.8665C140.896 32.8813 140.7 33.7919 140.307 34.5979C139.916 35.404 139.379 36.0335 138.698 36.4849C138.016 36.9363 137.256 37.1625 136.417 37.1625C135.468 37.1625 134.621 36.8639 133.878 36.266V41.062H131.319V25.7983H133.507L133.651 26.8617C134.435 25.9583 135.468 25.5064 136.747 25.5064C137.559 25.5064 138.278 25.722 138.904 26.153ZM138.336 30.6775C138.336 29.6215 138.147 28.8217 137.769 28.2798C137.39 27.7374 136.857 27.4664 136.169 27.4664C135.715 27.4664 135.289 27.5711 134.89 27.7792C134.49 27.9879 134.153 28.273 133.878 28.6345V34.452C134.484 34.9662 135.178 35.2235 135.963 35.2235C136.706 35.2235 137.287 34.9452 137.707 34.3892C138.126 33.8332 138.336 33.0204 138.336 31.9496V30.6775Z" fill="white"/>
        <path d="M148.93 36.8917C148.311 37.0721 147.672 37.1626 147.011 37.1626C145.938 37.1626 145.115 36.9154 144.545 36.4222C143.974 35.929 143.688 35.1682 143.688 34.1393V27.717H142.016V25.7984H143.75L143.956 23.0669H146.247V25.7984H148.621V27.717H146.247V33.9933C146.247 34.3967 146.357 34.6953 146.578 34.8899C146.798 35.0845 147.135 35.1818 147.589 35.1818C147.933 35.1818 148.291 35.1473 148.662 35.0777L148.93 36.8917Z" fill="white"/>
        <path d="M159.537 25.7983V36.8916H157.37L157.184 35.6614C156.276 36.662 155.175 37.1626 153.882 37.1626C153.235 37.1626 152.646 37.0235 152.117 36.7457C151.587 36.4674 151.168 36.0749 150.858 35.5675C150.548 35.0601 150.394 34.4656 150.394 33.7846V25.7983H152.953V33.6596C152.953 34.1602 153.084 34.546 153.345 34.8169C153.606 35.0878 153.992 35.2236 154.501 35.2236C154.955 35.2236 155.402 35.098 155.842 34.848C156.283 34.598 156.661 34.2507 156.978 33.8055V25.7983H159.537Z" fill="white"/>
        <path d="M168.728 25.7565L168.273 28.1548C168.067 28.1129 167.847 28.092 167.613 28.092C166.952 28.092 166.378 28.2589 165.89 28.5926C165.401 28.9264 165.012 29.4824 164.723 30.2607V36.8917H162.164V25.7984H164.022L164.434 27.5502C164.737 26.8691 165.153 26.3651 165.683 26.0382C166.213 25.7118 166.787 25.5483 167.406 25.5483C167.874 25.5483 168.315 25.6179 168.728 25.7565Z" fill="white"/>
        <path d="M178.993 32.1584H171.914C171.927 33.215 172.175 33.9899 172.657 34.4832C173.139 34.977 173.861 35.2236 174.824 35.2236C175.361 35.2236 175.853 35.1438 176.3 34.9838C176.747 34.8237 177.232 34.598 177.755 34.3061L178.663 35.8492C178.168 36.2243 177.566 36.537 176.857 36.787C176.149 37.0376 175.416 37.1626 174.659 37.1626C173.572 37.1626 172.633 36.9363 171.842 36.485C171.05 36.0336 170.449 35.4147 170.036 34.6291C169.623 33.844 169.416 32.9435 169.416 31.9287V30.7822C169.416 29.781 169.616 28.8811 170.015 28.0818C170.414 27.2826 170.985 26.6536 171.728 26.1949C172.471 25.7361 173.338 25.5065 174.329 25.5065C175.842 25.5065 177.012 25.9686 177.838 26.8929C178.663 27.8177 179.076 29.1554 179.076 30.9072C179.076 31.2964 179.048 31.7132 178.993 32.1584ZM176.785 30.3647C176.785 29.406 176.578 28.6729 176.166 28.1649C175.753 27.6576 175.147 27.4041 174.35 27.4041C173.565 27.4041 172.97 27.6615 172.564 28.1757C172.158 28.6898 171.941 29.4546 171.914 30.4694H176.785L176.785 30.3647Z" fill="white"/>
        <path d="M180 0.401398H175.611L170.355 6.33151V0.401398H166.671L166.689 14.9986H170.355V9.45168L175.34 14.9986H180L173.281 7.79125L180 0.401398Z" fill="white"/>
        <path d="M160.729 6.40449L157.37 6.02128C155.401 5.80234 154.913 5.30966 154.913 4.63459C154.913 3.88647 155.925 3.21134 157.893 3.21134C159.79 3.21134 160.783 3.92302 160.964 4.99949H164.576C164.395 1.91587 161.831 0 158.092 0C153.649 0 151.41 1.78815 151.41 4.94475C151.41 7.51757 152.891 8.72181 155.961 9.05023L159.375 9.41513C160.675 9.56109 161.271 10.072 161.271 10.7289C161.271 11.477 160.404 12.1521 158.309 12.1521C155.889 12.1521 154.914 11.5318 154.751 10.291H151.211C151.374 13.6483 153.541 15.3635 158.183 15.3635C162.427 15.3635 164.793 13.4841 164.793 10.6559C164.793 8.19258 163.384 6.71472 160.729 6.40449Z" fill="white"/>
        <path d="M137.954 14.9986H149.585V11.842H141.639V9.19619H148.032V6.02128H141.639V3.558H149.585V0.401398H137.954V14.9986Z" fill="white"/>
        <path d="M129.285 0.401398H122.53V14.9986H129.285C134.469 14.9986 135.895 13.0463 135.895 7.59055C135.895 2.46334 134.523 0.401398 129.285 0.401398ZM129.141 11.842H126.215V3.558H129.141C131.452 3.558 132.139 4.1967 132.139 7.59049C132.139 10.6925 131.362 11.842 129.141 11.842Z" fill="white"/>
        <path d="M112.525 0C107.269 0 104.542 3.26613 104.542 7.66353C104.542 12.0791 107.269 15.3635 112.525 15.3635C117.798 15.3635 120.526 12.0792 120.526 7.66353C120.526 3.26613 117.798 0 112.525 0ZM112.525 12.0792C109.797 12.0792 108.298 10.4005 108.298 7.66359C108.298 4.98136 109.797 3.28438 112.525 3.28438C115.27 3.28438 116.751 4.98136 116.751 7.66359C116.751 10.4005 115.27 12.0792 112.525 12.0792Z" fill="white"/>
        <path d="M90.9598 3.558H95.6196V14.9986H99.3039V3.558H103.946V0.401398H90.9598V3.558Z" fill="white"/>
        <path d="M85.5958 9.41525C85.5958 11.3128 84.4398 12.0792 82.4712 12.0792C80.5567 12.0792 79.3106 11.2764 79.3106 9.41525V0.401398H75.6261V9.83489C75.6261 14.0498 79.3467 15.3635 82.4712 15.3635C85.5777 15.3635 89.2801 14.0498 89.2801 9.83489V0.401398H85.5957L85.5958 9.41525Z" fill="white"/>
        <path d="M64.8438 0.401398L59.2992 14.9986H63.1101L64.0779 12.2617H70.2674L71.2194 14.9986H75.1567L69.5398 0.401398H64.8438ZM65.1748 9.15976L67.1983 3.43747L69.1885 9.15976H65.1748Z" fill="white"/>
        <mask id="mask0_21832_21063" style="mask-type:luminance" maskUnits="userSpaceOnUse" x="0" y="0" width="49" height="45">
            <path d="M48.4123 0.398285H0V44.9999H48.4123V0.398285Z" fill="white"/>
        </mask>
        <g mask="url(#mask0_21832_21063)">
            <mask id="mask1_21832_21063" style="mask-type:luminance" maskUnits="userSpaceOnUse" x="0" y="0" width="49" height="45">
                <path d="M48.4123 0.398285H0V44.9999H48.4123V0.398285Z" fill="white"/>
            </mask>
            <g mask="url(#mask1_21832_21063)">
                <path d="M7.81481 0.42024L7.82628 0.400604L44.593 8.60906H48.4122V45H6.87301C5.43225 45 4.26428 43.82 4.26428 42.3645V38.7987L7.81481 0.42024Z" fill="#4F6227"/>
                <path d="M44.8503 36.8906H7.81482V0.420237L7.82623 0.398285H42.2416C43.6823 0.398285 44.8503 1.57826 44.8503 3.03383V36.8906Z" fill="#88A943"/>
                <path d="M0 41.6549L7.82625 36.8906V0.398285L0 5.16256V41.6549Z" fill="#A7C36A"/>
            </g>
            <mask id="mask2_21832_21063" style="mask-type:luminance" maskUnits="userSpaceOnUse" x="0" y="0" width="49" height="45">
                <path d="M48.4123 0.398285H0V44.9999H48.4123V0.398285Z" fill="white"/>
            </mask>
            <g mask="url(#mask2_21832_21063)">
                <path d="M25.9385 12.2038V17.0287H32.5161V20.6114H25.9385V28.7877H20.9337V8.56335H33.717V12.2038L25.9385 12.2038Z" fill="white"/>
            </g>
        </g>
    </g>
    <defs>
        <clipPath id="clip0_21832_21063">
            <rect width="180" height="45" fill="white"/>
        </clipPath>
    </defs>
</svg>
