<svg width="469" height="141" viewBox="0 0 469 141" fill="none" xmlns="http://www.w3.org/2000/svg">
<path d="M0 139V1.5H37.2656C47.2656 1.5 54.5312 3.94792 59.0625 8.84375C63.6458 13.6875 65.9375 21.7083 65.9375 32.9062V38.9219C65.9375 45.3802 64.7656 50.6146 62.4219 54.625C60.1302 58.6354 56.6146 61.2656 51.875 62.5156C58.0729 64.0781 62.2135 67.75 64.2969 73.5312C66.4323 79.2604 67.5 86.2656 67.5 94.5469C67.5 103.453 66.6667 111.24 65 117.906C63.3333 124.573 60.3125 129.755 55.9375 133.453C51.5625 137.151 45.3385 139 37.2656 139H0ZM26.875 53.2969H32.5C35.0521 53.2969 36.6927 52.3073 37.4219 50.3281C38.151 48.349 38.5156 45.9792 38.5156 43.2188V29.3906C38.5156 24.9635 36.5625 22.75 32.6562 22.75H26.875V53.2969ZM29.6094 114.781C36.7448 114.781 40.3125 111.396 40.3125 104.625V87.4375C40.3125 83.5312 39.7135 80.4583 38.5156 78.2188C37.3698 75.9271 35.1823 74.7812 31.9531 74.7812H26.875V114.625C28.0208 114.729 28.9323 114.781 29.6094 114.781Z" fill="white"/>
<path d="M76.5625 139V1.5H131.562V28.0625H104.531V54.8594H130.469V80.7188H104.531V112.203H133.359V139H76.5625Z" fill="white"/>
<path d="M142.5 139V1.5H170.781L183.438 67.3594V1.5H210V139H183.125L169.375 70.25V139H142.5Z" fill="white"/>
<path d="M233.984 139V27.9062H217.656V1.5H277.812V27.9062H261.484V139H233.984Z" fill="white"/>
<path d="M318.281 140.25C307.292 140.25 298.88 136.943 293.047 130.328C287.266 123.661 284.375 114.052 284.375 101.5V36.1875C284.375 24.4167 287.24 15.4844 292.969 9.39062C298.75 3.29688 307.188 0.25 318.281 0.25C329.375 0.25 337.786 3.29688 343.516 9.39062C349.297 15.4844 352.188 24.4167 352.188 36.1875V101.5C352.188 114.052 349.271 123.661 343.438 130.328C337.656 136.943 329.271 140.25 318.281 140.25ZM318.516 114.938C322.682 114.938 324.766 110.901 324.766 102.828V35.7188C324.766 28.9479 322.734 25.5625 318.672 25.5625C314.089 25.5625 311.797 29.026 311.797 35.9531V102.984C311.797 107.255 312.318 110.328 313.359 112.203C314.401 114.026 316.12 114.938 318.516 114.938Z" fill="white"/>
<path d="M393.75 140.25C387.552 140.25 381.901 139.052 376.797 136.656C371.693 134.26 367.63 130.719 364.609 126.031C361.641 121.292 360.156 115.484 360.156 108.609V74.1562H387.344V106.969C387.344 109.365 387.812 111.292 388.75 112.75C389.74 114.208 391.302 114.938 393.438 114.938C397.552 114.938 399.609 112.411 399.609 107.359V1.5H427.344V104.625C427.344 111.917 425.911 118.245 423.047 123.609C420.182 128.922 416.224 133.036 411.172 135.953C406.12 138.818 400.312 140.25 393.75 140.25Z" fill="white"/>
<rect x="439" width="30" height="139" rx="3" fill="#F84F22"/>
</svg>
