<svg width="746" height="186" viewBox="0 0 746 186" fill="none" xmlns="http://www.w3.org/2000/svg">
<path d="M81.543 153.125C74.3164 153.125 67.806 152.214 62.0117 150.391C56.2174 148.568 51.2044 146.029 46.9727 142.773C42.7409 139.518 39.3229 135.71 36.7188 131.348H36.1328V150.586H0V9.66797H36.1328V64.9414H36.7188C39.3229 60.5794 42.7409 56.7708 46.9727 53.5156C51.2044 50.1953 56.2174 47.6237 62.0117 45.8008C67.8711 43.9779 74.3815 43.0664 81.543 43.0664C92.7409 43.0664 102.507 45.3451 110.84 49.9023C119.173 54.3945 125.618 60.7747 130.176 69.043C134.798 77.2461 137.109 86.8815 137.109 97.9492V98.1445C137.109 109.212 134.798 118.88 130.176 127.148C125.618 135.352 119.173 141.732 110.84 146.289C102.507 150.846 92.7409 153.125 81.543 153.125ZM68.457 127.246C74.9674 127.246 80.599 126.074 85.3516 123.73C90.1693 121.387 93.8477 118.066 96.3867 113.77C98.9909 109.408 100.293 104.199 100.293 98.1445V97.9492C100.293 91.9596 98.9909 86.7839 96.3867 82.4219C93.8477 78.0599 90.1693 74.7396 85.3516 72.4609C80.599 70.1172 74.9674 68.9453 68.457 68.9453C61.8815 68.9453 56.1849 70.1497 51.3672 72.5586C46.5495 74.9023 42.806 78.2552 40.1367 82.6172C37.4674 86.9141 36.1328 92.0573 36.1328 98.0469V98.1445C36.1328 104.134 37.4674 109.31 40.1367 113.672C42.806 117.969 46.5495 121.322 51.3672 123.73C56.1849 126.074 61.8815 127.246 68.457 127.246ZM210.625 153.125C196.628 153.125 184.551 150.977 174.395 146.68C164.303 142.383 156.523 136.165 151.055 128.027C145.586 119.824 142.852 109.961 142.852 98.4375V98.3398C142.852 86.9466 145.618 77.1159 151.152 68.8477C156.751 60.5794 164.531 54.1992 174.492 49.707C184.453 45.2148 196.042 43.0013 209.258 43.0664C222.734 43.1315 234.388 45.4753 244.219 50.0977C254.049 54.7201 261.602 61.2305 266.875 69.6289C272.214 77.9622 274.883 87.7604 274.883 99.0234V105.762H161.504V87.1094H251.543L240.996 100.781V94.2383C240.996 88.444 239.759 83.4961 237.285 79.3945C234.876 75.2279 231.361 72.0378 226.738 69.8242C222.116 67.6107 216.549 66.5039 210.039 66.5039C203.268 66.5039 197.474 67.6107 192.656 69.8242C187.839 71.9727 184.128 75.1953 181.523 79.4922C178.984 83.724 177.715 88.9648 177.715 95.2148V100.684C177.715 107.65 179.18 113.281 182.109 117.578C185.039 121.875 189.043 125 194.121 126.953C199.264 128.906 205.156 129.883 211.797 129.883C216.094 129.883 220.098 129.395 223.809 128.418C227.52 127.441 230.71 126.074 233.379 124.316C236.113 122.559 238.164 120.475 239.531 118.066L239.824 117.48H273.418L273.125 118.555C271.628 123.828 269.056 128.613 265.41 132.91C261.829 137.142 257.337 140.788 251.934 143.848C246.53 146.842 240.345 149.121 233.379 150.684C226.413 152.311 218.828 153.125 210.625 153.125ZM284.336 150.586V45.6055H320.566V66.1133H321.152C324.863 58.9518 330.397 53.3203 337.754 49.2188C345.111 45.1172 354.03 43.0664 364.512 43.0664C379.486 43.0664 391.107 47.1354 399.375 55.2734C407.643 63.4115 411.777 74.9349 411.777 89.8438V150.586H375.547V97.3633C375.547 88.3138 373.366 81.4453 369.004 76.7578C364.642 72.0703 358.197 69.7266 349.668 69.7266C343.743 69.7266 338.6 70.931 334.238 73.3398C329.876 75.6836 326.491 79.0039 324.082 83.3008C321.738 87.5977 320.566 92.6758 320.566 98.5352V150.586H284.336ZM648.828 185.156C645.898 185.156 643.066 185.026 640.332 184.766C637.598 184.57 635.286 184.31 633.398 183.984V162.305C634.375 162.435 635.579 162.565 637.012 162.695C638.379 162.826 639.746 162.891 641.113 162.891C646.712 162.891 650.814 161.816 653.418 159.668C656.022 157.52 657.324 153.906 657.324 148.828V45.6055H693.457V149.902C693.457 161.556 689.714 170.345 682.227 176.27C674.74 182.194 663.607 185.156 648.828 185.156ZM675.684 33.5938C669.954 33.5938 665.299 31.9987 661.719 28.8086C658.138 25.5534 656.348 21.5495 656.348 16.7969C656.348 12.0443 658.138 8.07292 661.719 4.88281C665.299 1.6276 669.954 0 675.684 0C681.348 0 685.97 1.6276 689.551 4.88281C693.132 8.07292 694.922 12.0443 694.922 16.7969C694.922 21.5495 693.132 25.5534 689.551 28.8086C685.97 31.9987 681.348 33.5938 675.684 33.5938ZM707.793 150.586V45.6055H744.023V150.586H707.793ZM725.957 33.5938C720.293 33.5938 715.638 31.9987 711.992 28.8086C708.411 25.5534 706.621 21.5495 706.621 16.7969C706.621 12.0443 708.411 8.07292 711.992 4.88281C715.638 1.6276 720.293 0 725.957 0C731.621 0 736.243 1.6276 739.824 4.88281C743.405 8.07292 745.195 12.0443 745.195 16.7969C745.195 21.5495 743.405 25.5534 739.824 28.8086C736.243 31.9987 731.621 33.5938 725.957 33.5938Z" fill="white"/>
<path d="M485 152.246C468.789 152.246 456.973 149.349 449.551 143.555C442.129 137.76 438.418 128.385 438.418 115.43V70.2148H417.617V45.6055H438.418V20.2148H474.551V45.6055H506.289V70.2148H474.648V110.742C474.648 116.862 476.211 121.191 479.336 123.73C482.461 126.27 487.702 127.539 495.059 127.539C497.207 127.539 499.225 127.441 501.113 127.246C503.066 127.051 504.792 126.823 506.289 126.562V150.586C503.359 151.042 500.072 151.432 496.426 151.758C492.78 152.083 488.971 152.246 485 152.246ZM579.316 153.125C565.514 153.125 553.503 150.911 543.281 146.484C533.125 141.992 525.247 135.645 519.648 127.441C514.049 119.238 511.25 109.473 511.25 98.1445V97.9492C511.25 86.6862 514.049 76.9531 519.648 68.75C525.312 60.5469 533.223 54.2318 543.379 49.8047C553.6 45.3125 565.579 43.0664 579.316 43.0664C593.053 43.0664 605 45.3125 615.156 49.8047C625.378 54.2318 633.288 60.5469 638.887 68.75C644.551 76.9531 647.383 86.6862 647.383 97.9492V98.1445C647.383 109.473 644.583 119.238 638.984 127.441C633.385 135.645 625.475 141.992 615.254 146.484C605.098 150.911 593.118 153.125 579.316 153.125ZM579.316 127.734C585.566 127.734 591.035 126.595 595.723 124.316C600.41 121.973 604.056 118.62 606.66 114.258C609.264 109.831 610.566 104.46 610.566 98.1445V97.9492C610.566 91.6992 609.232 86.3932 606.562 82.0312C603.958 77.6042 600.312 74.2513 595.625 71.9727C590.938 69.6289 585.501 68.457 579.316 68.457C573.132 68.457 567.663 69.6289 562.91 71.9727C558.223 74.2513 554.577 77.6042 551.973 82.0312C549.368 86.3932 548.066 91.6992 548.066 97.9492V98.1445C548.066 104.46 549.368 109.831 551.973 114.258C554.577 118.62 558.223 121.973 562.91 124.316C567.598 126.595 573.066 127.734 579.316 127.734Z" fill="#B2B2B2"/>
</svg>
